# xmcd
#
# Track frame offsets:
#	150
#	17655
#	30375
#	40691
#	53604
#	69986
#	83961
#	98971
#	115286
#	144119
#	160774
#	174564
#	188594
#
# Disc length: 2603 seconds
#
# Revision: 1
# Processed by: cddbd v1.5.2PL0 Copyright (c) Steve Scherf et al.
# Submitted via: audiograbber 1.83.01
#
DISCID=960a290d
DTITLE=Muddy Waters and Howlin' Wolf - Muddy and the Wolf
DYEAR=1991
DGENRE=
TTITLE0=11 The Red Rooster
TTITLE1=12 Highway 49
TTITLE2=13 Do the Do
TTITLE3=01 All Aboard
TTITLE4=02 Blow Wind Blow
TTITLE5=03 Can't Lose What You Ain't Never Had
TTITLE6=04 Walkin' Through the Park
TTITLE7=05 I'm Ready
TTITLE8=06 Long Distance Call
TTITLE9=07 Rockin' Daddy
TTITLE10=08 What a Woman
TTITLE11=09 Who's Been Talking
TTITLE12=10 The Red Rooster (Rehearsal)
EXTD=
EXTT0=
EXTT1=
EXTT2=
EXTT3=
EXTT4=
EXTT5=
EXTT6=
EXTT7=
EXTT8=
EXTT9=
EXTT10=
EXTT11=
EXTT12=
PLAYORDER=
